<svg width="30" height="30" viewBox="0 0 30 30" fill="none" xmlns="http://www.w3.org/2000/svg">
<path d="M30 15C30 23.2843 23.2843 30 15 30C6.71573 30 0 23.2843 0 15C0 6.71573 6.71573 0 15 0C23.2843 0 30 6.71573 30 15ZM10.3056 11.3113H11.8515C12.1104 11.3113 12.3163 11.1002 12.3511 10.8437C12.5178 9.61346 13.3622 8.71674 14.8673 8.71674C16.1527 8.71674 17.331 9.35944 17.331 10.9067C17.331 12.0969 16.6288 12.6443 15.5219 13.4775C14.2603 14.3939 13.2605 15.4651 13.3319 17.2028L13.3375 17.6093C13.341 17.8656 13.5498 18.0716 13.8062 18.0716H15.3269C15.5858 18.0716 15.7956 17.8617 15.7956 17.6028V17.4051C15.7956 16.0602 16.3074 15.6674 17.688 14.6201C18.8306 13.7512 20.0208 12.7872 20.0208 10.7639C20.0208 7.93121 17.6285 6.5625 15.0101 6.5625C12.6343 6.5625 10.0306 7.6699 9.85333 10.849C9.83909 11.1044 10.0498 11.3113 10.3056 11.3113ZM14.665 23.3917C15.8075 23.3917 16.5931 22.6538 16.5931 21.6541C16.5931 20.6186 15.8075 19.8926 14.665 19.8926C13.57 19.8926 12.7726 20.6186 12.7726 21.6541C12.7726 22.6538 13.57 23.3917 14.665 23.3917Z" fill="#FF0000"/>
</svg>
